<mxfile host="drawio-plugin" modified="2022-03-31T10:14:48.697Z" agent="5.0 (Windows NT 6.2; Win64; x64) AppleWebKit/537.36 (KHTML, like Gecko) Chrome/89.0.4389.114 Safari/537.36" etag="8K7HHAFa0iuRzt2gMmcE" version="15.5.4" type="embed"><diagram id="23iRSUPoRavnBvh4doch" name="Page-1"><mxGraphModel dx="1820" dy="513" grid="1" gridSize="10" guides="1" tooltips="1" connect="1" arrows="1" fold="1" page="1" pageScale="1" pageWidth="827" pageHeight="1169" math="0" shadow="0"><root><mxCell id="0"/><mxCell id="1" parent="0"/><mxCell id="4" style="edgeStyle=orthogonalEdgeStyle;rounded=0;orthogonalLoop=1;jettySize=auto;html=1;" edge="1" parent="1" source="2"><mxGeometry relative="1" as="geometry"><mxPoint x="185" y="910" as="targetPoint"/></mxGeometry></mxCell><mxCell id="2" value="Acteur" style="shape=umlActor;verticalLabelPosition=bottom;verticalAlign=top;html=1;outlineConnect=0;" vertex="1" parent="1"><mxGeometry x="170" y="70" width="30" height="60" as="geometry"/></mxCell><mxCell id="5" style="edgeStyle=orthogonalEdgeStyle;rounded=0;orthogonalLoop=1;jettySize=auto;html=1;" edge="1" parent="1" source="3"><mxGeometry relative="1" as="geometry"><mxPoint x="660" y="910" as="targetPoint"/></mxGeometry></mxCell><mxCell id="3" value="Système" style="rounded=0;whiteSpace=wrap;html=1;" vertex="1" parent="1"><mxGeometry x="600" y="70" width="120" height="60" as="geometry"/></mxCell><mxCell id="6" value="" style="endArrow=classic;html=1;rounded=0;" edge="1" parent="1"><mxGeometry width="50" height="50" relative="1" as="geometry"><mxPoint x="190" y="170" as="sourcePoint"/><mxPoint x="660" y="170" as="targetPoint"/></mxGeometry></mxCell><mxCell id="7" value="fait une recherche" style="text;html=1;align=center;verticalAlign=middle;resizable=0;points=[];autosize=1;strokeColor=none;fillColor=none;" vertex="1" parent="1"><mxGeometry x="355" y="140" width="110" height="20" as="geometry"/></mxCell><mxCell id="8" value="le système charge la liste des produits" style="endArrow=classic;html=1;rounded=0;" edge="1" parent="1"><mxGeometry relative="1" as="geometry"><mxPoint x="660" y="210" as="sourcePoint"/><mxPoint x="190" y="210" as="targetPoint"/></mxGeometry></mxCell><mxCell id="10" value="séléctionne un produit" style="endArrow=classic;html=1;rounded=0;" edge="1" parent="1"><mxGeometry relative="1" as="geometry"><mxPoint x="190" y="250" as="sourcePoint"/><mxPoint x="660" y="250" as="targetPoint"/></mxGeometry></mxCell><mxCell id="12" value="" style="endArrow=classic;html=1;rounded=0;" edge="1" parent="1"><mxGeometry relative="1" as="geometry"><mxPoint x="660" y="280" as="sourcePoint"/><mxPoint x="190" y="280" as="targetPoint"/></mxGeometry></mxCell><mxCell id="13" value="le système affiche la description" style="edgeLabel;resizable=0;html=1;align=center;verticalAlign=middle;" connectable="0" vertex="1" parent="12"><mxGeometry relative="1" as="geometry"/></mxCell><mxCell id="14" value="" style="endArrow=classic;html=1;rounded=0;" edge="1" parent="1"><mxGeometry relative="1" as="geometry"><mxPoint x="190" y="320" as="sourcePoint"/><mxPoint x="660" y="320" as="targetPoint"/></mxGeometry></mxCell><mxCell id="15" value="ajoute au panier" style="edgeLabel;resizable=0;html=1;align=center;verticalAlign=middle;" connectable="0" vertex="1" parent="14"><mxGeometry relative="1" as="geometry"/></mxCell><mxCell id="16" value="" style="endArrow=classic;html=1;rounded=0;" edge="1" parent="1"><mxGeometry relative="1" as="geometry"><mxPoint x="180" y="320" as="sourcePoint"/><mxPoint x="180" y="170" as="targetPoint"/><Array as="points"><mxPoint x="60" y="320"/><mxPoint x="60" y="170"/></Array></mxGeometry></mxCell><mxCell id="17" value="tâche pouvant être répété" style="edgeLabel;resizable=0;html=1;align=center;verticalAlign=middle;" connectable="0" vertex="1" parent="16"><mxGeometry relative="1" as="geometry"/></mxCell><mxCell id="18" value="" style="endArrow=classic;html=1;rounded=0;" edge="1" parent="1"><mxGeometry relative="1" as="geometry"><mxPoint x="660" y="360" as="sourcePoint"/><mxPoint x="190" y="360" as="targetPoint"/></mxGeometry></mxCell><mxCell id="19" value="affiche le panier" style="edgeLabel;resizable=0;html=1;align=center;verticalAlign=middle;" connectable="0" vertex="1" parent="18"><mxGeometry relative="1" as="geometry"/></mxCell><mxCell id="20" value="" style="endArrow=classic;html=1;rounded=0;" edge="1" parent="1"><mxGeometry relative="1" as="geometry"><mxPoint x="670" y="320" as="sourcePoint"/><mxPoint x="670" y="360" as="targetPoint"/><Array as="points"><mxPoint x="750" y="320"/><mxPoint x="750" y="360"/></Array></mxGeometry></mxCell><mxCell id="21" value="verifie le stock" style="edgeLabel;resizable=0;html=1;align=center;verticalAlign=middle;" connectable="0" vertex="1" parent="20"><mxGeometry relative="1" as="geometry"/></mxCell><mxCell id="22" value="" style="endArrow=classic;html=1;rounded=0;" edge="1" parent="1"><mxGeometry relative="1" as="geometry"><mxPoint x="190" y="400" as="sourcePoint"/><mxPoint x="660" y="400" as="targetPoint"/></mxGeometry></mxCell><mxCell id="23" value="valide le panier" style="edgeLabel;resizable=0;html=1;align=center;verticalAlign=middle;" connectable="0" vertex="1" parent="22"><mxGeometry relative="1" as="geometry"/></mxCell><mxCell id="24" value="" style="endArrow=classic;html=1;rounded=0;" edge="1" parent="1"><mxGeometry relative="1" as="geometry"><mxPoint x="660" y="440" as="sourcePoint"/><mxPoint x="190" y="440" as="targetPoint"/></mxGeometry></mxCell><mxCell id="25" value="affiche la page&amp;nbsp; de connexion" style="edgeLabel;resizable=0;html=1;align=center;verticalAlign=middle;" connectable="0" vertex="1" parent="24"><mxGeometry relative="1" as="geometry"/></mxCell><mxCell id="26" value="" style="endArrow=classic;html=1;rounded=0;" edge="1" parent="1"><mxGeometry relative="1" as="geometry"><mxPoint x="190" y="480" as="sourcePoint"/><mxPoint x="660" y="480" as="targetPoint"/></mxGeometry></mxCell><mxCell id="27" value="entre ses identifiants" style="edgeLabel;resizable=0;html=1;align=center;verticalAlign=middle;" connectable="0" vertex="1" parent="26"><mxGeometry relative="1" as="geometry"/></mxCell><mxCell id="28" value="" style="endArrow=classic;html=1;rounded=0;" edge="1" parent="1"><mxGeometry relative="1" as="geometry"><mxPoint x="190" y="520" as="sourcePoint"/><mxPoint x="660" y="520" as="targetPoint"/></mxGeometry></mxCell><mxCell id="29" value="cliique sur inscription" style="edgeLabel;resizable=0;html=1;align=center;verticalAlign=middle;" connectable="0" vertex="1" parent="28"><mxGeometry relative="1" as="geometry"/></mxCell><mxCell id="30" value="" style="endArrow=classic;html=1;rounded=0;" edge="1" parent="1"><mxGeometry relative="1" as="geometry"><mxPoint x="180" y="440" as="sourcePoint"/><mxPoint x="180" y="520" as="targetPoint"/><Array as="points"><mxPoint x="80" y="440"/><mxPoint x="80" y="520"/></Array></mxGeometry></mxCell><mxCell id="31" value="si non inscrit" style="edgeLabel;resizable=0;html=1;align=center;verticalAlign=middle;" connectable="0" vertex="1" parent="30"><mxGeometry relative="1" as="geometry"><mxPoint x="1" as="offset"/></mxGeometry></mxCell><mxCell id="32" value="" style="endArrow=classic;html=1;rounded=0;" edge="1" parent="1"><mxGeometry relative="1" as="geometry"><mxPoint x="660" y="560" as="sourcePoint"/><mxPoint x="190" y="560" as="targetPoint"/></mxGeometry></mxCell><mxCell id="33" value="affiche la page d'inscription" style="edgeLabel;resizable=0;html=1;align=center;verticalAlign=middle;" connectable="0" vertex="1" parent="32"><mxGeometry relative="1" as="geometry"/></mxCell></root></mxGraphModel></diagram></mxfile>